<svg version="1.0" xmlns="http://www.w3.org/2000/svg"
 width="18.000000pt" height="28.000000pt" viewBox="0 0 18.000000 28.000000"
 preserveAspectRatio="xMidYMid meet">
<g transform="translate(0.000000,28.000000) scale(0.100000,-0.100000)"
fill="#AAAAAA" stroke="none">
<path d="M19 233 c-1 -5 -2 -50 -3 -100 l-1 -93 43 0 42 0 0 50 c0 64 18 66
22 3 2 -40 7 -49 24 -51 20 -3 21 0 16 75 -3 50 -10 84 -20 96 -22 25 -26 14
-9 -25 17 -37 29 -138 16 -138 -4 0 -11 25 -14 55 -5 37 -12 55 -21 55 -10 0
-14 13 -14 40 0 40 0 40 -40 40 -22 0 -41 -3 -41 -7z m66 -33 c0 -20 -5 -25
-27 -27 -25 -2 -28 2 -28 28 0 27 3 30 28 27 21 -2 27 -8 27 -28z"/>
</g>
</svg>
